<svg xmlns="http://www.w3.org/2000/svg" viewBox="0 0 128 128">
  <g transform="matrix(1, 0, 0, 1, -0.196644, 25.870255)">
    <path d="M 68.252 5.062 C 69.917 3.332 72.178 2.359 74.53 2.359 C 85.118 2.359 95.097 2.359 104.924 2.359 C 124.686 2.359 134.583 27.217 120.608 41.755 L 90.167 73.423 C 88.769 74.876 86.38 73.847 86.38 71.792 L 86.38 43.899 L 89.898 40.24 C 92.694 37.332 90.715 32.358 86.76 32.358 L 42.012 32.358 L 68.252 5.062 Z" style="fill: rgb(0, 166, 62);"></path>
    <path d="M 60.141 71.197 C 58.478 72.928 56.217 73.901 53.864 73.901 C 43.275 73.901 33.298 73.901 23.471 73.901 C 3.706 73.899 -6.189 49.041 7.785 34.505 L 38.225 2.836 C 39.624 1.383 42.012 2.414 42.012 4.469 L 42.012 32.358 L 38.496 36.019 C 35.7 38.927 37.68 43.899 41.633 43.899 L 86.38 43.899 L 60.141 71.197 Z" style="fill: rgb(0, 166, 62);"></path>
  </g>
</svg>